# xmcd
#
# Track frame offsets: 
#        150
#        17032
#        31210
#        53325
#        66307
#        86705
#        164000
#        248832
#
# Disc length: 3491 seconds
#
# Revision: 19
# Processed by: cddbd v1.5.2PL0 Copyright (c) Steve Scherf et al.
# Submitted via: ExactAudioCopy v1.3
#
DISCID=610da108
DTITLE=Iron Butterfly - In-A-Gadda-Da-Vida
DYEAR=1968
DGENRE=Rock
TTITLE0=Most Anything You Want
TTITLE1=Flowers And Beads
TTITLE2=My Mirage
TTITLE3=Termination
TTITLE4=Are You Happy
TTITLE5=In-A-Gadda-Da-Vida
TTITLE6=In-A-Gadda-Da-Vida (Live Version)
TTITLE7=In-A-Gadda-Da-Vida (Single Version)
EXTD=
EXTT0=
EXTT1=
EXTT2=
EXTT3=
EXTT4=
EXTT5=
EXTT6=
EXTT7=
PLAYORDER=
